<?xml version="1.0" standalone="no"?>
<!DOCTYPE svg PUBLIC "-//W3C//DTD SVG 20010904//EN"
 "http://www.w3.org/TR/2001/REC-SVG-20010904/DTD/svg10.dtd">
<svg version="1.0" xmlns="http://www.w3.org/2000/svg"
 width="115.000000pt" height="32.000000pt" viewBox="0 0 115.000000 32.000000"
 preserveAspectRatio="xMidYMid meet">
<metadata>
Created by potrace 1.10, written by Peter Selinger 2001-2011
</metadata>
<g transform="translate(0.000000,32.000000) scale(0.100000,-0.100000)"
fill="#fbfbfb" stroke="none">
<path d="M13 313 c-7 -2 -13 -18 -13 -34 0 -25 4 -29 29 -29 29 0 29 -1 33
-60 3 -57 2 -60 -19 -60 -24 0 -32 -15 -12 -22 8 -3 7 -13 -3 -33 -29 -57 -31
-75 -9 -75 14 0 19 5 15 15 -5 11 1 15 20 15 27 0 35 -15 14 -23 -7 -3 5 -6
26 -6 36 -1 38 0 24 17 -16 17 -48 76 -48 87 0 3 41 5 91 5 57 0 88 4 84 10
-3 5 -24 10 -46 10 l-39 0 0 60 c0 53 2 60 20 60 15 0 20 -7 20 -29 0 -37 33
-78 70 -86 17 -4 30 -11 30 -16 0 -5 34 -9 75 -9 46 0 75 4 75 11 0 6 -10 8
-22 5 -13 -3 -9 1 9 9 41 19 67 57 61 90 -4 21 -1 25 18 25 23 0 24 -4 24 -59
0 -44 -4 -60 -16 -65 -12 -4 -14 -19 -12 -63 l3 -58 48 -3 c42 -3 47 -1 47 17
0 12 -7 21 -15 21 -8 0 -15 -7 -15 -16 0 -9 -7 -14 -17 -12 -14 2 -19 15 -21
51 l-3 47 150 0 c110 0 151 3 154 13 2 6 5 -14 5 -46 1 -32 4 -62 7 -67 8 -13
62 -13 70 1 11 17 -4 24 -25 11 -18 -11 -20 -9 -20 22 0 30 4 35 28 39 l27 4
-27 2 c-21 1 -28 6 -28 21 0 11 5 20 10 20 6 0 10 -4 10 -10 0 -6 48 -10 125
-10 77 0 125 4 125 10 0 6 -5 10 -11 10 -7 0 -10 12 -7 30 l5 30 -58 0 c-86 0
-89 3 -89 71 l0 59 -45 0 -45 0 0 -57 0 -58 -30 52 c-24 43 -36 53 -64 58 -43
9 -76 -1 -98 -29 l-18 -21 0 28 0 27 -105 0 c-101 0 -105 -1 -105 -22 0 -21 0
-21 -21 -2 -31 28 -187 28 -218 0 -21 -19 -21 -19 -21 2 0 21 -4 22 -97 21
-54 0 -104 -3 -110 -6z m187 -28 c0 -10 -10 -15 -30 -15 l-30 0 0 -65 c0 -65
0 -65 -28 -65 l-28 0 4 65 4 65 -36 0 c-25 0 -36 4 -36 15 0 12 17 15 90 15
73 0 90 -3 90 -15z m234 4 c60 -28 54 -108 -11 -136 -58 -24 -151 -13 -180 22
-36 42 -28 86 22 113 26 15 137 15 169 1z m236 -4 c0 -10 -10 -15 -31 -15
l-32 0 5 -65 6 -65 -29 0 c-29 0 -29 0 -29 65 l0 65 -30 0 c-20 0 -30 5 -30
15 0 12 16 15 85 15 69 0 85 -3 85 -15z m197 -63 c24 -41 43 -76 43 -79 0 -2
-12 -3 -27 -1 -22 2 -35 16 -63 65 -19 35 -37 63 -40 63 -4 0 -47 -67 -58 -91
-2 -4 17 -4 42 -2 37 5 46 2 55 -16 12 -21 10 -21 -79 -21 -49 0 -90 2 -90 5
0 4 34 62 77 133 12 19 21 23 55 20 40 -3 43 -6 85 -76z m103 24 c0 -54 1 -55
36 -66 20 -7 51 -10 70 -7 29 5 34 3 34 -14 0 -38 -158 -20 -180 21 -6 10 -10
41 -10 69 0 48 2 51 25 51 24 0 25 -3 25 -54z m-297 -23 c-11 -15 -23 -37 -27
-47 -11 -31 -17 -12 -10 32 5 31 11 42 28 44 30 5 31 3 9 -29z m121 -9 c9 -23
8 -24 -14 -24 -11 0 -20 2 -20 4 0 12 13 36 20 36 4 0 11 -7 14 -16z m182 -85
c9 -15 -23 -10 -35 5 -10 12 -8 13 9 9 11 -3 23 -9 26 -14z m-916 -69 c0 -5
-4 -10 -10 -10 -5 0 -10 5 -10 10 0 6 5 10 10 10 6 0 10 -4 10 -10z"/>
<path d="M285 254 c-40 -40 9 -89 80 -80 57 7 82 47 49 80 -21 22 -107 21
-129 0z m113 -31 c-3 -25 -8 -28 -44 -31 -44 -3 -69 14 -58 42 5 12 19 16 56
16 48 0 49 -1 46 -27z"/>
<path d="M258 112 c-2 -9 -2 -39 0 -65 4 -47 5 -48 35 -45 31 3 52 28 24 28
-9 0 -18 -6 -20 -12 -3 -7 -6 4 -6 25 -1 31 2 37 19 37 11 0 20 4 20 9 0 5 -9
7 -20 4 -13 -4 -20 0 -20 10 0 21 -27 29 -32 9z"/>
<path d="M137 61 c8 -60 10 -62 50 -59 37 3 38 4 41 46 3 35 0 42 -15 42 -16
0 -18 -6 -15 -40 3 -32 1 -40 -12 -40 -12 0 -16 10 -16 39 0 30 -4 40 -19 44
-17 4 -19 0 -14 -32z"/>
<path d="M345 81 c-3 -6 -3 -27 1 -46 6 -35 8 -36 48 -33 41 3 41 3 41 43 0
40 0 40 -42 43 -22 2 -44 -2 -48 -7z m65 -36 c0 -29 -4 -35 -21 -35 -15 0 -19
4 -15 16 3 9 6 24 6 35 0 10 7 19 15 19 10 0 15 -11 15 -35z"/>
<path d="M626 82 c-3 -5 -3 -26 1 -46 6 -36 7 -37 46 -34 38 3 67 28 33 28 -9
0 -16 -4 -16 -10 0 -5 -9 -10 -21 -10 -33 0 -16 25 20 28 27 3 32 7 29 25 -2
18 -11 23 -45 25 -22 2 -44 -1 -47 -6z m64 -17 c0 -8 -9 -15 -20 -15 -20 0
-26 11 -13 23 12 13 33 7 33 -8z"/>
<path d="M735 45 c0 -39 2 -45 20 -45 16 0 20 6 20 37 0 22 5 38 14 41 10 3
12 -2 7 -21 -8 -32 1 -57 21 -57 11 0 13 11 11 43 l-3 42 -45 2 -45 2 0 -44z"/>
<path d="M942 48 c3 -43 3 -43 42 -43 23 0 41 5 44 13 2 6 -3 12 -12 12 -9 0
-16 -4 -16 -10 0 -5 -7 -10 -15 -10 -8 0 -15 7 -15 15 0 10 10 15 30 15 25 0
30 4 30 25 0 23 -4 25 -46 25 l-45 0 3 -42z m58 17 c0 -8 -7 -15 -15 -15 -8 0
-15 7 -15 15 0 8 7 15 15 15 8 0 15 -7 15 -15z"/>
<path d="M1047 77 c9 -15 9 -49 -1 -65 -5 -8 2 -12 25 -12 26 0 30 3 21 12
-17 17 -15 43 5 59 15 13 16 12 11 -8 -5 -18 -2 -23 13 -23 13 0 19 7 19 24 0
23 -4 25 -50 24 -35 0 -48 -3 -43 -11z"/>
</g>
</svg>
